HIERARCHY
ROOT Hips
{
	OFFSET 0.000000 0.000000 0.000000
	CHANNELS 6 Xposition Yposition Zposition Zrotation Yrotation Xrotation 
	JOINT LowerBack
	{
		OFFSET 0.000000 0.000000 0.000000
		CHANNELS 3 Zrotation Yrotation Xrotation
		JOINT Spine
		{
			OFFSET 0.028270 2.035590 -0.193380
			CHANNELS 3 Zrotation Yrotation Xrotation
			JOINT Spine1
			{
				OFFSET 0.056720 2.048850 -0.042750
				CHANNELS 3 Zrotation Yrotation Xrotation
				JOINT Neck
				{
					OFFSET 0.000000 0.000000 0.000000
					CHANNELS 3 Zrotation Yrotation Xrotation
					JOINT Neck1
					{
						OFFSET -0.054170 1.746240 0.172020
						CHANNELS 3 Zrotation Yrotation Xrotation
						JOINT Head
						{
							OFFSET 0.104070 1.761360 -0.123970
							CHANNELS 3 Zrotation Yrotation Xrotation
							End Site
							{
								OFFSET 0.000000 0.000000 0.000000
							}
						}
					}
				}
				JOINT LeftShoulder
				{
					OFFSET 0.000000 0.000000 0.000000
					CHANNELS 3 Zrotation Yrotation Xrotation
					JOINT LeftArm
					{
						OFFSET 3.362410 1.200890 -0.311210
						CHANNELS 3 Zrotation Yrotation Xrotation
						JOINT LeftForeArm
						{
							OFFSET 4.983000 -0.000000 -0.000000
							CHANNELS 3 Zrotation Yrotation Xrotation
							JOINT LeftHand
							{
								OFFSET 3.483560 -0.000000 -0.000000
								CHANNELS 3 Zrotation Yrotation Xrotation
								JOINT LeftFingerBase
								{
									OFFSET 0.000000 0.000000 0.000000
									CHANNELS 3 Zrotation Yrotation Xrotation
									JOINT LeftHandIndex1
									{
										OFFSET 0.715260 -0.000000 -0.000000
										CHANNELS 3 Zrotation Yrotation Xrotation
										End Site
										{
											OFFSET 0.000000 0.000000 0.000000
										}
									}
								}
								JOINT LThumb
								{
									OFFSET 0.000000 0.000000 0.000000
									CHANNELS 3 Zrotation Yrotation Xrotation
									End Site
									{
										OFFSET 0.000000 0.000000 0.000000
									}
								}
							}
						}
					}
				}
				JOINT RightShoulder
				{
					OFFSET 0.000000 0.000000 0.000000
					CHANNELS 3 Zrotation Yrotation Xrotation
					JOINT RightArm
					{
						OFFSET -3.136600 1.374050 -0.404650
						CHANNELS 3 Zrotation Yrotation Xrotation
						JOINT RightForeArm
						{
							OFFSET -5.241900 -0.000000 -0.000000
							CHANNELS 3 Zrotation Yrotation Xrotation
							JOINT RightHand
							{
								OFFSET -3.444170 -0.000000 -0.000000
								CHANNELS 3 Zrotation Yrotation Xrotation
								JOINT RightFingerBase
								{
									OFFSET 0.000000 0.000000 0.000000
									CHANNELS 3 Zrotation Yrotation Xrotation
									JOINT RightHandIndex1
									{
										OFFSET -0.622530 -0.000000 -0.000000
										CHANNELS 3 Zrotation Yrotation Xrotation
										End Site
										{
											OFFSET 0.000000 0.000000 0.000000
										}
									}
								}
								JOINT RThumb
								{
									OFFSET 0.000000 0.000000 0.000000
									CHANNELS 3 Zrotation Yrotation Xrotation
									End Site
									{
										OFFSET 0.000000 0.000000 0.000000
									}
								}
							}
						}
					}
				}
			}
		}
	}
}
}
MOTION
Frames: 11
Frame Time: 0.008333
3.070464 16.750404 1.299771 -143.259476 -89.029869 153.587971 4.343062 -3.323769 -3.453673 0.172243 -3.842405 -3.399426 -7.425261 -3.879618 0.897789 9.175449 -7.938397 -5.392104 -4.538180 -0.364436 0.592860 0.000000 0.000000 0.000000 -6.635953 2.559807 1.274924 -57.544199 -17.808994 13.725097 -2.623637 -46.340275 -0.015922 6.184483 0.350762 0.011573 -0.136650 0.167240 0.000000 0.000000 0.000000 0.000000 0.000000 0.000000 0.000000 19.385695 -7.958919 0.698647 63.248148 -6.793663 -15.990503 4.238727 7.768994 0.009359 -2.436176 4.611230 -0.103830 0.129307 -0.032505 -0.000000 0.000000 0.000000 0.000000 0.000000 0.000000 0.000000 
2.887594 16.778226 1.273432 -129.232236 -88.828535 139.588063 4.760155 -3.263273 -3.572220 0.247038 -3.820399 -3.439844 -7.394241 -3.859150 0.899927 9.108844 -7.755135 -5.380396 -4.549236 -0.365633 0.597091 0.000000 0.000000 0.000000 -6.790107 2.746983 1.241020 -58.512928 -17.121491 13.533152 -2.681503 -44.687281 -0.015363 6.311378 0.329629 0.011093 -0.132753 0.158009 0.000000 0.000000 0.000000 0.000000 0.000000 0.000000 0.000000 19.330614 -7.771366 0.664911 63.357516 -6.397901 -16.002573 4.246103 7.541907 0.009260 -2.568767 4.585103 -0.108628 0.129910 -0.032844 -0.000000 0.000000 0.000000 0.000000 0.000000 0.000000 0.000000 
2.709571 16.806888 1.245081 -121.466555 -88.526759 131.846801 5.158913 -3.186182 -3.657162 0.316288 -3.779536 -3.472914 -7.369406 -3.820076 0.894854 9.065322 -7.547528 -5.364740 -4.560126 -0.366810 0.601962 0.000000 0.000000 0.000000 -6.855960 2.920823 1.212517 -59.511893 -16.434066 13.258728 -2.731287 -42.921032 -0.014912 6.460457 0.337192 0.012103 -0.128074 0.148870 0.000000 0.000000 0.000000 0.000000 0.000000 0.000000 0.000000 19.290648 -7.552184 0.635623 63.526597 -5.945230 -15.996606 4.248660 7.342949 0.009139 -2.679472 4.558311 -0.112426 0.130198 -0.033346 -0.000000 0.000000 0.000000 0.000000 0.000000 0.000000 0.000000 
2.536557 16.835964 1.214138 -116.773595 -88.229409 127.177880 5.492665 -3.113262 -3.711527 0.373421 -3.736815 -3.498531 -7.349930 -3.779783 0.886584 9.052727 -7.327522 -5.347683 -4.571202 -0.367985 0.606935 0.000000 0.000000 0.000000 -6.831622 3.062677 1.192341 -60.520269 -15.750635 12.908535 -2.773625 -41.064517 -0.014539 6.618235 0.376801 0.015107 -0.122801 0.139972 0.000000 0.000000 0.000000 0.000000 0.000000 0.000000 0.000000 19.280100 -7.320256 0.611318 63.753614 -5.431445 -15.943046 4.244388 7.181817 0.008989 -2.769290 4.529937 -0.115324 0.130071 -0.033926 -0.000000 0.000000 0.000000 0.000000 0.000000 0.000000 0.000000 
2.368940 16.865121 1.181157 -113.249476 -87.962295 123.671740 5.762873 -3.050425 -3.734879 0.417879 -3.697662 -3.517447 -7.335334 -3.743429 0.874418 9.066133 -7.093307 -5.328247 -4.582328 -0.369145 0.612387 0.000000 0.000000 0.000000 -6.738070 3.167684 1.183783 -61.514681 -15.077546 12.497477 -2.809108 -39.145375 -0.014222 6.768875 0.454308 0.020508 -0.117070 0.131470 0.000000 0.000000 0.000000 0.000000 0.000000 0.000000 0.000000 19.292971 -7.074204 0.592904 64.037241 -4.861622 -15.859626 4.233959 7.061350 0.008828 -2.830461 4.507305 -0.117220 0.129492 -0.034660 -0.000000 0.000000 0.000000 0.000000 0.000000 0.000000 0.000000 
2.206506 16.894089 1.146430 -110.099317 -87.738808 120.534625 5.967738 -3.000316 -3.728394 0.448815 -3.664301 -3.529805 -7.325503 -3.713013 0.859481 9.103312 -6.857142 -5.308796 -4.593506 -0.370275 0.617762 0.000000 0.000000 0.000000 -6.590934 3.231052 1.187936 -62.475974 -14.417802 12.042533 -2.838585 -37.192609 -0.013929 6.895346 0.572122 0.028508 -0.111012 0.123471 0.000000 0.000000 0.000000 0.000000 0.000000 0.000000 0.000000 19.329221 -6.826441 0.580623 64.370324 -4.234004 -15.706774 4.217150 6.995731 0.008651 -2.866269 4.487974 -0.118116 0.128475 -0.035492 -0.000000 0.000000 0.000000 0.000000 0.000000 0.000000 0.000000 
2.048977 16.922651 1.110618 -106.773704 -87.557576 117.216617 6.120038 -2.963584 -3.696517 0.468451 -3.638411 -3.537106 -7.320110 -3.690084 0.840564 9.157173 -6.614148 -5.287210 -4.604588 -0.371376 0.623691 0.000000 0.000000 0.000000 -6.415675 3.255985 1.206601 -63.383473 -13.775521 11.572289 -2.863521 -35.236156 -0.013639 6.980470 0.734749 0.039212 -0.104806 0.116081 0.000000 0.000000 0.000000 0.000000 0.000000 0.000000 0.000000 19.379907 -6.571083 0.573910 64.749159 -3.561492 -15.521428 4.195435 6.983272 0.008488 -2.865736 4.484724 -0.117910 0.127003 -0.036538 -0.000000 0.000000 0.000000 0.000000 0.000000 0.000000 0.000000 
1.896060 16.950721 1.074037 -103.050892 -87.420428 113.493947 6.220160 -2.940262 -3.641579 0.476771 -3.620092 -3.539701 -7.318734 -3.674610 0.818174 9.224433 -6.374385 -5.264737 -4.615668 -0.372451 0.629850 0.000000 0.000000 0.000000 -6.227692 3.242367 1.238993 -64.223155 -13.150066 11.111161 -2.885306 -33.304942 -0.013331 7.009475 0.940837 0.052421 -0.098623 0.109349 0.000000 0.000000 0.000000 0.000000 0.000000 0.000000 0.000000 19.444292 -6.317571 0.572016 65.164940 -2.846950 -15.274624 4.168906 7.034348 0.008344 -2.831827 4.497493 -0.116902 0.125107 -0.037763 -0.000000 0.000000 0.000000 0.000000 0.000000 0.000000 0.000000 
1.747112 16.978265 1.037121 -98.757486 -87.320960 109.196529 6.275511 -2.928774 -3.569385 0.475218 -3.608673 -3.538982 -7.320687 -3.665865 0.791920 9.298961 -6.137134 -5.239770 -4.626640 -0.373507 0.636682 0.000000 0.000000 0.000000 -6.046054 3.195005 1.284281 -64.983742 -12.539122 10.687151 -2.905434 -31.427615 -0.012987 6.970484 1.188502 0.067739 -0.092641 0.103295 0.000000 0.000000 0.000000 0.000000 0.000000 0.000000 0.000000 19.515705 -6.064378 0.573833 65.611302 -2.100405 -14.986167 4.138696 7.146309 0.008241 -2.759926 4.536110 -0.114993 0.122807 -0.039238 -0.000000 0.000000 0.000000 0.000000 0.000000 0.000000 0.000000 
1.601857 17.005289 1.000030 -93.894740 -87.255734 104.320872 6.282568 -2.926557 -3.479929 0.463055 -3.601394 -3.534291 -7.325555 -3.660935 0.763979 9.380124 -5.921392 -5.216378 -4.637886 -0.374547 0.643026 0.000000 0.000000 0.000000 -5.878922 3.119861 1.338853 -65.661555 -11.943133 10.321634 -2.925320 -29.626882 -0.012587 6.857217 1.468998 0.083867 -0.087034 0.097872 0.000000 0.000000 0.000000 0.000000 0.000000 0.000000 0.000000 19.599871 -5.828963 0.577857 66.073146 -1.324125 -14.555567 4.103864 7.350861 0.008144 -2.668518 4.581695 -0.112384 0.120215 -0.040742 -0.000000 0.000000 0.000000 0.000000 0.000000 0.000000 0.000000 
1.459430 17.031864 0.963217 -88.477751 -87.210283 98.889746 6.252575 -2.929548 -3.384113 0.442745 -3.595833 -3.528603 -7.332197 -3.657541 0.731764 9.458783 -5.708267 -5.187669 -4.648973 -0.375603 0.650774 0.000000 0.000000 0.000000 -5.742434 3.024439 1.401897 -66.251312 -11.350441 10.036573 -2.945773 -27.930480 -0.012133 6.666958 1.777664 0.099907 -0.081919 0.093023 0.000000 0.000000 0.000000 0.000000 0.000000 0.000000 0.000000 19.681805 -5.591188 0.583035 66.551670 -0.535195 -14.097548 4.066965 7.615360 0.008112 -2.539533 4.662258 -0.108871 0.117305 -0.042565 -0.000000 0.000000 0.000000 0.000000 0.000000 0.000000 0.000000 
